<?xml version="1.0" standalone="no"?>
<!DOCTYPE svg PUBLIC "-//W3C//DTD SVG 20010904//EN"
 "http://www.w3.org/TR/2001/REC-SVG-20010904/DTD/svg10.dtd">
<svg version="1.0" xmlns="http://www.w3.org/2000/svg"
 width="260.000000pt" height="53.000000pt" viewBox="0 0 260.000000 53.000000"
 preserveAspectRatio="xMidYMid meet">

<g transform="translate(0.000000,53.000000) scale(0.100000,-0.100000)"
fill="#000000" stroke="none">
<path d="M119 520 c-66 -20 -119 -89 -119 -157 0 -19 33 -97 81 -194 l81 -164
75 150 c42 83 80 163 84 179 19 64 -25 145 -95 177 -44 20 -66 22 -107 9z m89
-86 c73 -51 23 -163 -64 -146 -13 2 -33 16 -44 30 -58 73 32 169 108 116z"/>
<path d="M1300 390 c0 -33 -2 -60 -5 -60 -2 0 -15 5 -29 11 -35 16 -81 -4 -96
-42 -18 -43 -7 -119 20 -141 27 -22 52 -23 90 -3 27 14 30 14 30 0 0 -8 9 -15
20 -15 19 0 20 7 20 155 l0 155 -25 0 c-24 0 -25 -3 -25 -60z m-18 -97 c22
-20 23 -70 1 -95 -45 -50 -92 12 -63 86 11 30 35 33 62 9z"/>
<path d="M2140 384 l0 -65 -22 15 c-50 35 -112 3 -123 -64 -15 -91 40 -150
111 -117 29 14 34 15 34 2 0 -8 7 -15 15 -15 13 0 15 24 15 155 0 131 -2 155
-15 155 -12 0 -15 -14 -15 -66z m-22 -80 c32 -22 32 -96 0 -118 -52 -37 -88
-11 -88 63 0 63 40 89 88 55z"/>
<path d="M1645 420 c-8 -14 3 -30 21 -30 8 0 14 9 14 20 0 21 -24 28 -35 10z"/>
<path d="M454 407 c-2 -7 -3 -69 -2 -138 l3 -124 25 0 c23 0 25 4 28 53 l3 52
45 0 c37 0 44 3 44 20 0 17 -7 20 -45 20 l-45 0 0 45 0 45 50 0 c43 0 50 3 50
20 0 18 -7 20 -75 20 -53 0 -77 -4 -81 -13z"/>
<path d="M1430 280 c0 -118 2 -140 15 -140 12 0 15 13 15 60 l0 60 55 0 c42 0
55 3 55 15 0 12 -13 15 -55 15 l-55 0 0 50 0 49 55 3 c81 4 73 22 -12 26 l-73
3 0 -141z"/>
<path d="M704 340 c-34 -14 -54 -50 -54 -100 0 -65 32 -95 102 -95 42 0 53 4
74 28 24 28 33 93 18 132 -14 36 -90 55 -140 35z m86 -49 c26 -50 4 -111 -40
-111 -19 0 -33 7 -40 19 -15 29 -12 77 6 95 21 22 61 20 74 -3z"/>
<path d="M954 340 c-49 -19 -69 -95 -43 -154 24 -53 130 -59 169 -9 20 26 27
92 14 128 -14 36 -90 55 -140 35z m86 -49 c26 -50 4 -111 -40 -111 -33 0 -50
23 -50 65 0 14 5 35 10 46 14 26 66 26 80 0z"/>
<path d="M1650 245 c0 -87 3 -105 15 -105 12 0 15 18 15 105 0 87 -3 105 -15
105 -12 0 -15 -18 -15 -105z"/>
<path d="M1760 245 c0 -87 3 -105 15 -105 12 0 15 15 15 73 0 80 15 107 58
107 31 0 42 -29 42 -109 0 -56 3 -71 15 -71 12 0 15 16 15 85 0 72 -3 88 -20
105 -24 24 -59 26 -86 5 -25 -19 -34 -19 -34 0 0 8 -4 15 -10 15 -6 0 -10 -42
-10 -105z"/>
<path d="M2292 340 c-50 -21 -66 -131 -24 -172 36 -37 142 -31 142 7 0 12 -4
14 -19 5 -47 -25 -111 0 -111 43 0 14 11 17 70 17 l70 0 0 29 c0 16 -8 38 -17
50 -20 25 -77 35 -111 21z m82 -36 c27 -26 18 -34 -39 -34 -38 0 -55 4 -55 13
0 36 65 51 94 21z"/>
<path d="M2490 245 c0 -87 3 -105 15 -105 12 0 15 15 15 73 0 80 15 107 59
107 14 0 21 5 19 13 -7 18 -43 20 -58 2 -16 -19 -30 -19 -30 0 0 8 -4 15 -10
15 -6 0 -10 -42 -10 -105z"/>
</g>
</svg>
